<svg xmlns="http://www.w3.org/2000/svg" viewBox="0 0 151.88 152"><defs><style>.cls-1{font-size:67.43px;font-family:MyriadPro-Regular, Myriad Pro;}</style></defs><title>Asset 1</title><g id="Layer_2" data-name="Layer 2"><g id="Layer_1-2" data-name="Layer 1"><path d="M145.32,32.7l-3.68-1.15a11.67,11.67,0,0,0-3-.46,9.9,9.9,0,0,0-9.21,6.68L127.36,44V39.15a2.84,2.84,0,0,0-.92-1.84L88.67.69A2.49,2.49,0,0,0,87.05,0H13.13a2.18,2.18,0,0,0-2.3,2.3V9.44H2.3A2.18,2.18,0,0,0,0,11.75v138A2.18,2.18,0,0,0,2.3,152H114.23a2.18,2.18,0,0,0,2.3-2.3v-7.14h8.52a2.18,2.18,0,0,0,2.3-2.3V109.16l6.45-8.75.23-.69,17.27-55A9.18,9.18,0,0,0,145.32,32.7Zm-56-24.87,30.17,29H89.36Zm22.57,139.56H4.61V14h6.22V140.25a2.18,2.18,0,0,0,2.3,2.3h98.8v4.84ZM123,138H15.43V4.61H84.75V39.15a2.18,2.18,0,0,0,2.3,2.3H123V58.73L112.16,92.81v.69l.46,29.25a2.21,2.21,0,0,0,1.61,2.07,2.19,2.19,0,0,0,2.53-.92l6.22-8.29V138Zm-6-22.34-.46-19.12L128,100.18ZM147.16,43.3,130.58,96l-13.36-4.38,16.58-52.51A5,5,0,0,1,140,35.93l3.68,1.15A4.87,4.87,0,0,1,147.16,43.3Z"/><text class="cls-1" transform="translate(26.24 106.21)">A5</text></g></g></svg>