<svg xmlns="http://www.w3.org/2000/svg" viewBox="0 0 370.82 159.16"><defs><style>.cls-1{isolation:isolate;}.cls-2{fill:none;stroke:#9357c1;stroke-miterlimit:10;stroke-width:1.3px;}.cls-3{fill:#ad911c;}.cls-4{fill:#5fd3af;}.cls-5{fill:#37a580;}.cls-6{fill:#231f20;opacity:0.2;mix-blend-mode:multiply;}.cls-7{fill:#ead854;}.cls-8{font-size:14px;}.cls-12,.cls-8{font-family:Roboto-Medium, Roboto;}.cls-9{letter-spacing:-0.01em;}.cls-10{letter-spacing:-0.01em;}.cls-11{font-size:48px;fill:#fff;font-family:Roboto-Bold, Roboto;font-weight:700;}.cls-12{font-size:33.08px;}</style></defs><title>promo</title><g class="cls-1"><g id="Layer_2" data-name="Layer 2"><g id="OBJECTS"><polygon class="cls-2" points="296.55 57.51 292.82 26.33 341.25 1.28 333.91 26.33 345.67 59.98 296.55 57.51"/><polygon class="cls-2" points="351.94 37.59 0.86 43.41 33.95 158.47 370.04 132.24 351.94 37.59"/><polygon class="cls-3" points="147.14 26.33 153.25 42.16 138.39 41.48 147.14 26.33"/><polyline class="cls-4" points="354.69 141.29 357.19 51.47 18.32 36 24.37 147.29 354.69 141.29"/><polygon class="cls-5" points="357.19 51.47 302.32 48.96 300.36 23.48 357.19 51.47"/><polygon class="cls-4" points="300.36 23.48 333.91 0.14 328.78 37.47 300.36 23.48"/><polygon class="cls-3" points="46.59 26.33 39.46 36.97 53.09 37.59 46.59 26.33"/><polygon class="cls-6" points="338.82 146.47 295.42 152.31 292.82 80.52 341.48 76.63 338.82 146.47"/><polygon class="cls-7" points="342.71 149.39 295.42 152.31 296.71 83.43 345.37 79.55 342.71 149.39"/><polygon class="cls-6" points="147.14 26.33 99.78 33.14 49.51 33.14 49.19 94.11 99.78 120.22 147.14 26.33"/><polygon class="cls-7" points="96.86 113.41 46.27 87.3 46.59 26.33 96.86 26.33 147.14 26.33 122 69.87 96.86 113.41"/><polygon class="cls-3" points="295.42 152.31 289.66 142.47 295.6 142.47 295.42 152.31"/><text></text><text class="cls-8" transform="translate(298.36 110.88)">F<tspan class="cls-9" x="7.75" y="0">O</tspan><tspan class="cls-10" x="17.15" y="0">T</tspan><tspan x="25.18" y="0">O</tspan><tspan x="0" y="16.8" xml:space="preserve">  COPY</tspan></text><text class="cls-11" transform="translate(120.45 114.47)">PROMO</text><text class="cls-12" transform="translate(55.84 69.87)">30%</text></g></g></g></svg>