<svg xmlns="http://www.w3.org/2000/svg" viewBox="2587.832 3947 326.755 108.081">
  <defs>
    <style>
      .cls-1 {
        fill: none;
        stroke: #fff;
        stroke-miterlimit: 10;
        stroke-width: 0.94px;
      }

      .cls-2, .cls-5 {
        fill: #fff;
      }

      .cls-3 {
        fill: #89ada4;
      }

      .cls-4 {
        fill: #8bb7ab;
      }

      .cls-5 {
        font-size: 22px;
        font-family: Roboto-Bold, Roboto;
        font-weight: 700;
      }

      .cls-6 {
        letter-spacing: -0.01em;
      }

      .cls-7 {
        letter-spacing: 0.01em;
      }

      .cls-8 {
        fill: #15bdb1;
      }

      .cls-9 {
        fill: #20d0c2;
      }

      .cls-10 {
        fill: #0e7886;
      }

      .cls-11 {
        fill: #dfe1e3;
      }

      .cls-12 {
        fill: #c8cacc;
      }

      .cls-13 {
        fill: #ff5b61;
      }

      .cls-14 {
        fill: #fbb429;
      }
    </style>
  </defs>
  <g id="prima" transform="translate(2587.832 3947)">
    <g id="OBJECTS">
      <path id="Path_37" data-name="Path 37" class="cls-1" d="M11.63,17.82l264.365.976L262.624,50.276l13.371,26.487L11.63,75.778" transform="translate(-1.757 -2.692)"/>
      <path id="Path_38" data-name="Path 38" class="cls-2" d="M129.74,51.583c0,11.342-1.545,14.577-9.559,14.577H112.71V38h7.471c8.023,0,9.559,3.243,9.559,14.585Zm-6.282.951c0-9.169-.637-9.483-4.466-9.483V61.083c3.829,0,4.466-.314,4.466-9.483Z" transform="translate(-17.024 -5.74)"/>
      <path id="Path_39" data-name="Path 39" class="cls-2" d="M142.782,38V66.177H136.5V38Z" transform="translate(-20.618 -5.74)"/>
      <path id="Path_40" data-name="Path 40" class="cls-2" d="M154.742,45.665c0,4.983,9.007,4.661,9.007,12.879,0,4.737-.713,8.023-7.98,8.023-6.792,0-8.1-4.313-8.1-10.12h6.877c0,2.547,0,4.627,1.222,4.627.951,0,1.112-.993,1.112-2.547,0-5.213-8.855-4.542-8.855-13,0-5.807,1.7-8.1,8.057-8.1,5.773,0,7.861,3.99,7.861,9.8h-6.877c0-3.4-.153-4.3-1.146-4.3S154.742,43.415,154.742,45.665Z" transform="translate(-22.305 -5.654)"/>
      <path id="Path_41" data-name="Path 41" class="cls-2" d="M181.854,56.765h6.911c0,5.807-2.5,9.8-8.659,9.8-8.337,0-9.525-3.515-9.525-14.543,0-10.671,1.341-14.619,9.525-14.619,6.163,0,8.659,3.99,8.659,9.8h-6.877c0-2.547-.357-4.3-2.1-4.3-1.978,0-2.292,1.46-2.292,9.126,0,7.819.28,9.05,2.258,9.05C181.455,61.077,181.854,59.371,181.854,56.765Z" transform="translate(-25.765 -5.649)"/>
      <path id="Path_42" data-name="Path 42" class="cls-2" d="M213.943,52.029c0,10.629-.628,14.543-9.126,14.543s-9.126-3.914-9.126-14.543c0-10.272.637-14.619,9.126-14.619S213.943,41.748,213.943,52.029Zm-11.342,0c0,7.819.238,9.05,2.207,9.05s2.216-1.231,2.216-9.05c0-7.641-.246-9.126-2.216-9.126s-2.2,1.46-2.2,9.126Z" transform="translate(-29.558 -5.651)"/>
      <path id="Path_43" data-name="Path 43" class="cls-2" d="M232.781,53.655V38h6.4V53.655c0,11.036-1.817,13-9.126,13s-9.126-1.978-9.126-13V38h6.4V53.655c0,6.24.357,7.819,2.725,7.819S232.781,59.895,232.781,53.655Z" transform="translate(-33.37 -5.74)"/>
      <path id="Path_44" data-name="Path 44" class="cls-2" d="M265.212,38V66.177H258.93l-6.478-13.948V66.177H246.17V38h6.248l6.52,14.738V38Z" transform="translate(-37.183 -5.74)"/>
      <path id="Path_45" data-name="Path 45" class="cls-2" d="M284.268,66.177h-6.274V43.459H272.34V38h17.582v5.493h-5.654Z" transform="translate(-41.135 -5.74)"/>
      <path id="Path_46" data-name="Path 46" class="cls-2" d="M36.586,60.45V75.027H33.343V69.313h-2.19v5.722H27.91V60.45h3.243v6.028h2.182V60.45Z" transform="translate(-4.216 -9.131)"/>
      <path id="Path_47" data-name="Path 47" class="cls-2" d="M46.189,68.558V60.45H49.5v8.108c0,5.7-.942,6.724-4.72,6.724s-4.72-1.019-4.72-6.724V60.45H43.4v8.108c0,3.226.187,4.05,1.409,4.05S46.189,71.784,46.189,68.558Z" transform="translate(-6.051 -9.131)"/>
      <path id="Path_48" data-name="Path 48" class="cls-2" d="M61.514,74.983l-.263-.959a4.3,4.3,0,0,1-3.167,1.206c-4.313,0-4.924-1.817-4.924-7.513,0-5.518.7-7.556,4.924-7.556,3.192,0,4.474,2.063,4.474,5.094H58.967c0-1.307-.187-2.224-1.078-2.224s-1.18.756-1.18,4.72.144,4.678,1.163,4.678c.849,0,1.1-.8,1.1-2.063v-.637H57.8V67.1h4.72v7.929Z" transform="translate(-8.03 -9.087)"/>
      <path id="Path_49" data-name="Path 49" class="cls-2" d="M69.36,66.163h2.547V69H69.36v3.192h3.532v2.836H66.1V60.45h6.792v2.836H69.36Z" transform="translate(-9.984 -9.131)"/>
      <path id="Path_50" data-name="Path 50" class="cls-2" d="M76.537,70.183,76.13,60.42h3.659l-.374,9.763Zm3.15,4.839H76.232V71.575h3.455Z" transform="translate(-11.499 -9.126)"/>
      <path id="Path_51" data-name="Path 51" class="cls-2" d="M42.235,40.454c0,2.428,4.712,1.367,4.712,5.73a3.15,3.15,0,0,1-2.869,3.447v1.316H41.53V49.682c-2.122-.382-2.64-2.021-2.64-4.245h3.056c0,1.129,0,1.936.756,1.936s.849-.475.849-1.18c0-2.6-4.466-1.622-4.466-5.781,0-2.071.594-3.251,2.479-3.617V35.42h2.547v1.3c1.961.391,2.632,2.021,2.632,4.245H43.687c0-1.367,0-1.919-.688-1.919S42.235,39.308,42.235,40.454Z" transform="translate(-5.874 -5.35)"/>
      <path id="Path_52" data-name="Path 52" class="cls-2" d="M53.362,40.454c0,2.428,4.712,1.367,4.712,5.73a3.15,3.15,0,0,1-2.827,3.447v1.316H52.7V49.682c-2.122-.382-2.64-2.021-2.64-4.245h3.056c0,1.129,0,1.936.756,1.936s.849-.475.849-1.18c0-2.6-4.466-1.622-4.466-5.781,0-2.071.594-3.251,2.479-3.617V35.42h2.547v1.3c1.97.391,2.632,2.021,2.632,4.245H54.857c0-1.367,0-1.919-.688-1.919S53.362,39.308,53.362,40.454Z" transform="translate(-7.561 -5.35)"/>
      <path id="Path_53" data-name="Path 53" class="cls-2" d="M64.482,40.454c0,2.428,4.712,1.367,4.712,5.73a3.15,3.15,0,0,1-2.827,3.447v1.316H63.82V49.682c-2.122-.382-2.64-2.021-2.64-4.245h3.056c0,1.129,0,1.936.756,1.936s.807-.475.807-1.18c0-2.6-4.465-1.622-4.465-5.781,0-2.071.594-3.251,2.479-3.617V35.42h2.547v1.3c1.97.391,2.64,2.021,2.64,4.245H65.943c0-1.367,0-1.919-.688-1.919S64.482,39.308,64.482,40.454Z" transform="translate(-9.241 -5.35)"/>
      <path id="Path_54" data-name="Path 54" class="cls-3" d="M326.755,7.52H0v74.7H325.176l-13.957-37.4Z" transform="translate(0 -1.136)"/>
      <path id="Path_55" data-name="Path 55" class="cls-4" d="M83.868,108.081,47.745,86.942,11.63,108.081V0H83.868Z" transform="translate(-1.757)"/>
      <rect id="Rectangle_1" data-name="Rectangle 1" class="cls-3" width="15.247" height="74.7" transform="translate(0 6.384)"/>
      <text id="FOTOCOPY_PRIMA" data-name="FOTOCOPY PRIMA" class="cls-5" transform="translate(92.647 49.016)"><tspan x="0" y="0">F</tspan><tspan class="cls-6" y="0">OT</tspan><tspan y="0">OCOPY PRI</tspan><tspan class="cls-7" y="0">M</tspan><tspan y="0">A</tspan></text>
      <path id="Path_56" data-name="Path 56" class="cls-8" d="M29.17,55.06H77.858V69.17a1.7,1.7,0,0,1-1.7,1.7H30.885a1.7,1.7,0,0,1-1.7-1.7Z" transform="translate(-4.406 -8.316)"/>
      <path id="Path_57" data-name="Path 57" class="cls-9" d="M29.17,53.761H77.858l-4.033-7.3H33.2l-4.033,7.3Z" transform="translate(-4.406 -7.018)"/>
      <path id="Path_58" data-name="Path 58" class="cls-10" d="M37.991,61.39H71.338a1.239,1.239,0,0,1,1.231,1.231v1.766a1.239,1.239,0,0,1-1.231,1.231H37.991a1.239,1.239,0,0,1-1.231-1.231V62.621a1.239,1.239,0,0,1,1.231-1.231Z" transform="translate(-5.552 -9.273)"/>
      <path id="Path_59" data-name="Path 59" class="cls-10" d="M37.813,48.61H71.5l1.07,3.039H36.76Z" transform="translate(-5.552 -7.342)"/>
      <path id="Path_60" data-name="Path 60" class="cls-2" d="M40.63,29.6H69.868V48.778H40.63Z" transform="translate(-6.137 -4.471)"/>
      <path id="Path_61" data-name="Path 61" class="cls-11" d="M38.84,76.229H71.1V75.94H38.84Z" transform="translate(-5.867 -11.47)"/>
      <path id="Path_62" data-name="Path 62" class="cls-2" d="M38.84,73.751H71.1L69.6,61.39H40.36Z" transform="translate(-5.867 -9.273)"/>
      <path id="Path_63" data-name="Path 63" class="cls-12" d="M44.16,46.54H66.946v.475H44.16Zm0,1.333H66.946v.475H44.16Zm0,1.333H59.305v.475H44.16Z" transform="translate(-6.67 -7.03)"/>
      <path id="Path_64" data-name="Path 64" class="cls-12" d="M44.16,42.32H62.837V42.8H44.16Zm0-7.98H66.946v.475H44.16Zm0,1.333H66.946v.475H44.16Zm0,1.333H66.946v.441H44.16Zm0,1.333H62.837v.475H44.16Zm0,1.333H67v.475H44.16Zm0,1.333H67v.475H44.16Z" transform="translate(-6.67 -5.187)"/>
      <path id="Path_65" data-name="Path 65" class="cls-13" d="M80,57.31a.985.985,0,1,1-.7.279A.985.985,0,0,1,80,57.31Z" transform="translate(-11.932 -8.656)"/>
      <path id="Path_66" data-name="Path 66" class="cls-14" d="M83.495,57.31a.985.985,0,1,1-.985.985A.985.985,0,0,1,83.495,57.31Z" transform="translate(-12.463 -8.656)"/>
    </g>
  </g>
</svg>
